<?xml version="1.0"?>
<!DOCTYPE svg PUBLIC "-//W3C//DTD SVG 1.1//EN" "http://www.w3.org/Graphics/SVG/1.1/DTD/svg11.dtd">
<!--Phoronix Test Suite v10.0.1 [ http://www.phoronix-test-suite.com/ ]-->
<svg xmlns="http://www.w3.org/2000/svg" xmlns:xlink="http://www.w3.org/1999/xlink" version="1.1" font-family="sans-serif, droid-sans, helvetica, verdana, tahoma" viewbox="0 0 311 410" width="311" height="410" preserveAspectRatio="xMinYMin meet"><rect x="0" y="0" width="311" height="410" fill="#FEFEFE"/><text x="155.5" y="19" font-size="17" fill="#231f20" text-anchor="middle" font-weight="bold">wifi-performance</text><a xlink:href="https://www.phoronix-test-suite.com/" xlink:show="new"><text x="4" y="36" font-size="8" fill="#231f20" text-anchor="start" xlink:show="new" font-weight="bold">Phoronix Test Suite 10.0.1</text></a><a xlink:href="https://www.phoronix-test-suite.com/" xlink:show="new"><text x="307" y="36" font-size="8" fill="#231f20" text-anchor="end" xlink:show="new" font-weight="bold">Phoronix Test Suite 10.0.1</text></a><g fill="#949494"><rect x="0" y="55" width="311" height="16"/><rect x="0" y="87" width="311" height="16"/><rect x="0" y="119" width="311" height="16"/><rect x="0" y="151" width="311" height="16"/></g><g fill="none" stroke-width="1" stroke="#005a00"/><g font-size="10" fill="#065695" text-anchor="middle" font-weight="bold"><a xlink:href="http://openbenchmarking.org/s/ARMv7 Cortex-A72 @ 1.50GHz (4 Cores)" xlink:show="new"><text x="155.5" y="52" xlink:title="Processor: ARMv7 Cortex-A72 @ 1.50GHz (4 Cores)">ARMv7 Cortex-A72 @ 1.50GHz (4 Cores)</text></a><a xlink:href="http://openbenchmarking.org/s/BCM2711 Raspberry Pi 4 Model B Rev 1.2" xlink:show="new"><text x="155.5" y="68" xlink:title="Motherboard: BCM2711 Raspberry Pi 4 Model B Rev 1.2">BCM2711 Raspberry Pi 4 Model B Rev 1.2</text></a><a xlink:href="http://openbenchmarking.org/s/4096MB" xlink:show="new"><text x="155.5" y="84" xlink:title="Memory: 4096MB">4096MB</text></a><a xlink:href="http://openbenchmarking.org/s/16GB SL16G" xlink:show="new"><text x="155.5" y="100" xlink:title="Disk: 16GB SL16G">16GB SL16G</text></a><a xlink:href="http://openbenchmarking.org/s/Raspbian 10" xlink:show="new"><text x="155.5" y="116" xlink:title="OS: Raspbian 10">Raspbian 10</text></a><a xlink:href="http://openbenchmarking.org/s/5.4.77-v7l-s3755145+ (armv7l)" xlink:show="new"><text x="155.5" y="132" xlink:title="Kernel: 5.4.77-v7l-s3755145+ (armv7l)">5.4.77-v7l-s3755145+ (armv7l)</text></a><a xlink:href="http://openbenchmarking.org/s/X Server 1.20.4" xlink:show="new"><text x="155.5" y="148" xlink:title="Display Server: X Server 1.20.4">X Server 1.20.4</text></a><a xlink:href="http://openbenchmarking.org/s/GCC 8.3.0" xlink:show="new"><text x="155.5" y="164" xlink:title="Compiler: GCC 8.3.0">GCC 8.3.0</text></a><a xlink:href="http://openbenchmarking.org/s/ext4" xlink:show="new"><text x="155.5" y="180" xlink:title="File-System: ext4">ext4</text></a></g><g font-size="7" fill="#065695" text-anchor="end"><text x="307" y="48">Processor</text><text x="307" y="64">Motherboard</text><text x="307" y="80">Memory</text><text x="307" y="96">Disk</text><text x="307" y="112">OS</text><text x="307" y="128">Kernel</text><text x="307" y="144">Display Server</text><text x="307" y="160">Compiler</text><text x="307" y="176">File-System</text></g><g stroke="#757575" stroke-width="1"><line x1="0" y1="39" x2="311" y2="39"/><line x1="0" y1="55" x2="311" y2="55"/><line x1="0" y1="71" x2="311" y2="71"/><line x1="0" y1="87" x2="311" y2="87"/><line x1="0" y1="103" x2="311" y2="103"/><line x1="0" y1="119" x2="311" y2="119"/><line x1="0" y1="135" x2="311" y2="135"/><line x1="0" y1="151" x2="311" y2="151"/><line x1="0" y1="167" x2="311" y2="167"/></g><rect x="1" y="183" width="309" height="227" fill="#FEFEFE"/><text x="4" y="204" font-size="9" fill="#231f20" text-anchor="start" xlink:title=""><tspan x="4" y="204" dx="0" dy="0">- snd_bcm2835.enable_compat_alsa=0 snd_bcm2835.enable_hdmi=1 </tspan></text><text x="4" y="215" font-size="9" fill="#231f20" text-anchor="start" xlink:title=""><tspan x="4" y="215" dx="0" dy="0">- --build=arm-linux-gnueabihf --disable-libitm</tspan><tspan x="4" y="215" dx="5" dy="10"> --disable-libquadmath --disable-libquadmath-support</tspan><tspan x="4" y="215" dx="5" dy="20"> --disable-sjlj-exceptions --disable-werror</tspan><tspan x="4" y="215" dx="5" dy="30"> --enable-bootstrap --enable-checking=release</tspan><tspan x="4" y="215" dx="5" dy="40"> --enable-clocale=gnu --enable-gnu-unique-object</tspan><tspan x="4" y="215" dx="5" dy="50"> --enable-languages=c,ada,c++,go,d,fortran,objc,obj-c++</tspan><tspan x="4" y="215" dx="5" dy="60"> --enable-libstdcxx-debug --enable-libstdcxx-time=yes</tspan><tspan x="4" y="215" dx="5" dy="70"> --enable-multiarch --enable-nls --enable-objc-gc=auto</tspan><tspan x="4" y="215" dx="5" dy="80"> --enable-plugin --enable-shared --enable-threads=posix</tspan><tspan x="4" y="215" dx="5" dy="90"> --host=arm-linux-gnueabihf</tspan><tspan x="4" y="215" dx="5" dy="100"> --program-prefix=arm-linux-gnueabihf-</tspan><tspan x="4" y="215" dx="5" dy="110"> --target=arm-linux-gnueabihf --with-arch=armv6</tspan><tspan x="4" y="215" dx="5" dy="120"> --with-default-libstdcxx-abi=new --with-float=hard</tspan><tspan x="4" y="215" dx="5" dy="130"> --with-fpu=vfp --with-gcc-major-version-only</tspan><tspan x="4" y="215" dx="5" dy="140"> --with-target-system-zlib -v </tspan></text><text x="4" y="380" font-size="9" fill="#231f20" text-anchor="start" width="307">- Scaling Governor: cpufreq-dt ondemand</text></svg>
