<?xml version="1.0"?>
<!DOCTYPE svg PUBLIC "-//W3C//DTD SVG 1.1//EN" "http://www.w3.org/Graphics/SVG/1.1/DTD/svg11.dtd">
<!--Phoronix Test Suite v10.0.1 [ http://www.phoronix-test-suite.com/ ]-->
<svg xmlns="http://www.w3.org/2000/svg" xmlns:xlink="http://www.w3.org/1999/xlink" version="1.1" font-family="sans-serif, droid-sans, helvetica, verdana, tahoma" viewbox="0 0 433 281" width="433" height="281" preserveAspectRatio="xMinYMin meet"><rect x="0" y="0" width="433" height="281" fill="#FEFEFE"/><rect x="1" y="1" width="432" height="280" fill="#FEFEFE" stroke="#757575" stroke-width="1"/><path d="m74 22v9m-5-16v16m-5-28v28m-23-2h12.5c2.485281 0 4.5-2.014719 4.5-4.5s-2.014719-4.5-4.5-4.5h-8c-2.485281 0-4.5-2.014719-4.5-4.5s2.014719-4.5 4.5-4.5h12.5m-21 5h-11m11 13h-2c-4.970563 0-9-4.029437-9-9v-20m-24 40v-20c0-4.970563 4.0294373-9 9-9 4.970563 0 9 4.029437 9 9s-4.029437 9-9 9h-9" stroke="#000000" stroke-width="4" fill="none" transform="translate(114,28)"/><line x1="307" y1="145" x2="433" y2="145" stroke="#BABABA" stroke-width="240" stroke-dasharray="126,126"/><line x1="217" y1="73" x2="217" y2="265" stroke="#949494" stroke-width="433" stroke-dasharray="16,16"/><line x1="307" y1="145" x2="433" y2="145" stroke="#757575" stroke-width="240" stroke-dasharray="1,125"/><rect x="1" y="1" width="431" height="25" fill="#231f20"/><text x="5" y="19" font-size="17" fill="#FEFEFE" text-anchor="start">uniassignment2-results</text><line x1="1" y1="25" x2="432" y2="25" stroke="#757575" stroke-width="1"/><g font-size="10" font-weight="bold" fill="#065695" text-anchor="end"><a xlink:href="https://openbenchmarking.org/test/pts/ramspeed-1.4.3" xlink:show="new"><text x="305" y="85">ramspeed: Add - Integer</text></a><a xlink:href="https://openbenchmarking.org/test/pts/ramspeed-1.4.3" xlink:show="new"><text x="305" y="101">ramspeed: Copy - Integer</text></a><a xlink:href="https://openbenchmarking.org/test/pts/ramspeed-1.4.3" xlink:show="new"><text x="305" y="117">ramspeed: Scale - Integer</text></a><a xlink:href="https://openbenchmarking.org/test/pts/ramspeed-1.4.3" xlink:show="new"><text x="305" y="133">ramspeed: Triad - Integer</text></a><a xlink:href="https://openbenchmarking.org/test/pts/ramspeed-1.4.3" xlink:show="new"><text x="305" y="149">ramspeed: Average - Integer</text></a><a xlink:href="https://openbenchmarking.org/test/pts/ramspeed-1.4.3" xlink:show="new"><text x="305" y="165">ramspeed: Add - Floating Point</text></a><a xlink:href="https://openbenchmarking.org/test/pts/ramspeed-1.4.3" xlink:show="new"><text x="305" y="181">ramspeed: Copy - Floating Point</text></a><a xlink:href="https://openbenchmarking.org/test/pts/ramspeed-1.4.3" xlink:show="new"><text x="305" y="197">ramspeed: Scale - Floating Point</text></a><a xlink:href="https://openbenchmarking.org/test/pts/ramspeed-1.4.3" xlink:show="new"><text x="305" y="213">ramspeed: Triad - Floating Point</text></a><a xlink:href="https://openbenchmarking.org/test/pts/ramspeed-1.4.3" xlink:show="new"><text x="305" y="229">ramspeed: Average - Floating Point</text></a><a xlink:href="https://openbenchmarking.org/test/pts/c-ray-1.2.0" xlink:show="new"><text x="305" y="245">c-ray: Total Time - 4K, 16 Rays Per Pixel</text></a><a xlink:href="https://openbenchmarking.org/test/pts/scikit-learn-1.1.0" xlink:show="new"><text x="305" y="261">scikit-learn: </text></a></g><g font-size="10" fill="#065695" font-weight="bold" text-anchor="middle" dominant-baseline="text-before-edge"><text x="370" y="49">ARMv7 Cortex-A72</text></g><g fill="#BABABA"/><g text-anchor="middle" font-size="10" fill="#065695"><text x="370" y="86" xlink:title="STD Dev: 3.31%;  STD Error: 44.93">4078.66</text><text x="370" y="102" xlink:title="STD Dev: 0.78%;  STD Error: 18.80">4190.86</text><text x="370" y="118" xlink:title="STD Dev: 1.32%;  STD Error: 32.52">4280.23</text><text x="370" y="134" xlink:title="STD Dev: 1.69%;  STD Error: 39.94">4099.66</text><text x="370" y="150" xlink:title="STD Dev: 0.92%;  STD Error: 21.95">4150.69</text><text x="370" y="166" xlink:title="STD Dev: 1.77%;  STD Error: 41.97">4114.84</text><text x="370" y="182" xlink:title="STD Dev: 0.84%;  STD Error: 15.48">3190.40</text><text x="370" y="198" xlink:title="STD Dev: 1.44%;  STD Error: 37.43">4499.56</text><text x="370" y="214" xlink:title="STD Dev: 0.34%;  STD Error: 8.07">4069.08</text><text x="370" y="230" xlink:title="STD Dev: 0.78%;  STD Error: 17.49">3879.94</text><text x="370" y="246" xlink:title="STD Dev: 0.32%;  STD Error: 1.41">776.482</text><text x="370" y="262" xlink:title="STD Dev: 0.24%;  STD Error: 0.27">197.747</text></g><line x1="217" y1="73" x2="217" y2="265" stroke="#949494" stroke-width="433" stroke-dasharray="1,15"/><rect x="0" y="265" width="433" height="16" fill="#231f20"/><a xlink:href="https://www.phoronix-test-suite.com/" xlink:show="new"><text x="431" y="278" font-size="10" fill="#FFFFFF" text-anchor="end" xlink:show="new">Phoronix Test Suite 10.0.1</text></a></svg>
